Coordinates
version=1
nRows=20
nColumns=23
inDegrees=yes

Units are S.I. units (second, meters, Newtons, ...)
If the header above contains a line with 'inDegrees', this indicates whether rotational values are in degrees (yes) or radians (no).

endheader
time	pelvis_tilt	pelvis_list	pelvis_rotation	pelvis_tx	pelvis_ty	pelvis_tz	hip_flexion_r	hip_adduction_r	hip_rotation_r	knee_angle_r	knee_angle_r_beta	ankle_angle_r	subtalar_angle_r	mtp_angle_r	hip_flexion_l	hip_adduction_l	hip_rotation_l	knee_angle_l	knee_angle_l_beta	ankle_angle_l	subtalar_angle_l	mtp_angle_l
      7.50000000	    -12.29286783	      0.53211229	     -3.40225620	      2.10928881	      1.03538845	      1.09434885	     33.50978660	      2.77603997	     -7.29127946	     14.80259777	      0.25835407	     12.80116839	      5.88601436	      0.00000000	     -9.87542951	      2.26704061	     -8.15104856	     21.70108603	      0.37875540	    -19.73657313	      0.75138102	      0.00000000
      7.50666667	    -11.98786392	      0.48992751	     -3.79438457	      2.10950893	      1.03560152	      1.09540166	     32.22999064	      3.39162138	     -6.46477411	     11.20932675	      0.19563966	     12.52731544	      6.09261794	      0.00000000	     -9.92448303	      2.15810797	     -8.17858291	     23.80742579	      0.41551797	    -19.18745610	      1.19101549	      0.00000000
      7.51333333	    -12.08202382	      0.74516117	     -4.23640503	      2.10906846	      1.03459684	      1.09632626	     31.85598159	      3.59043132	     -5.98301087	      8.80415275	      0.15366145	     12.52398699	      6.91970770	      0.00000000	     -9.32709152	      2.45345339	     -7.74307751	     26.23657899	      0.45791469	    -18.49209196	      1.03850250	      0.00000000
      7.52000000	    -11.75178393	      0.65479872	     -4.60228035	      2.10881255	      1.03382106	      1.09691456	     30.80798498	      4.07277905	     -4.93107906	      6.35894179	      0.11098447	     12.04054754	      6.29557560	      0.00000000	     -9.09308624	      2.31990297	     -7.60936817	     28.89492642	      0.50431160	    -17.44507026	      1.77394389	      0.00000000
      7.52666667	    -11.55183405	      0.65166206	     -4.98646528	      2.10820948	      1.03237883	      1.09732409	     30.30467206	      4.33771200	     -4.39507331	      5.04294228	      0.08801595	     11.86531759	      6.23324164	      0.00000000	     -8.58470290	      2.37678254	     -7.15523192	     31.72479650	      0.55370215	    -16.41387128	      2.08936101	      0.00000000
      7.53333333	    -11.25198373	      0.56572672	     -5.33677762	      2.10751798	      1.03068869	      1.09749515	     29.91280479	      4.56815464	     -4.20955127	      4.52666472	      0.07900520	     11.77269082	      6.30274160	      0.00000000	     -8.09252729	      2.40173316	     -6.59477974	     34.67353022	      0.60516727	    -15.44228690	      2.24694056	      0.00000000
      7.54000000	    -10.81734830	      0.30422915	     -5.68787097	      2.10681083	      1.02881403	      1.09756123	     29.48347250	      4.90980008	     -4.08800796	      4.60312227	      0.08033964	     11.61080516	      6.07871794	      0.00000000	     -7.64866454	      2.19780276	     -6.26823169	     37.79700615	      0.65968220	    -14.37722697	      2.72235819	      0.00000000
      7.54666667	    -10.35861926	     -0.03015865	     -6.12355519	      2.10597288	      1.02650338	      1.09770348	     29.22130568	      5.31303595	     -4.02905579	      5.40004069	      0.09424849	     11.36189730	      5.82224794	      0.00000000	     -7.13333087	      1.79034948	     -6.40412530	     41.08998208	      0.71715548	    -13.35482774	      3.79139307	      0.00000000
      7.55333333	     -9.76681376	     -0.44750724	     -6.47091237	      2.10514435	      1.02403547	      1.09761548	     28.94552674	      5.67947307	     -4.22547820	      6.78803204	      0.11847351	     11.04340554	      5.54826462	      0.00000000	     -6.70862041	      1.32199062	     -6.41335834	     44.40720210	      0.77505189	    -12.48108121	      4.42695480	      0.00000000
      7.56000000	     -9.27075984	     -0.76995017	     -6.93767680	      2.10402115	      1.02089763	      1.09771237	     29.08182783	      5.93901013	     -4.62477139	      9.03660331	      0.15771848	     10.78249777	      5.63345785	      0.00000000	     -6.08583536	      0.87505135	     -6.68914153	     47.81719478	      0.83456749	    -11.71569936	      4.97782373	      0.00000000
      7.56666667	     -8.70130289	     -1.14152817	     -7.33261007	      2.10292550	      1.01746147	      1.09770124	     29.16164079	      6.17143316	     -4.98405126	     11.58959768	      0.20227664	     10.23186584	      5.40724591	      0.00000000	     -5.49463863	      0.33532457	     -6.96313722	     51.24439501	      0.89438342	    -11.03464551	      5.31593826	      0.00000000
      7.57333333	     -7.55528852	     -1.75679360	     -7.55024151	      2.10222047	      1.01476793	      1.09742090	     28.30856292	      6.55165198	     -5.01141958	     13.80370591	      0.24092012	      9.01509241	      4.73110514	      0.00000000	     -5.60042772	     -0.33671951	     -6.98238216	     54.42132859	      0.94983137	    -10.74033829	      4.80766987	      0.00000000
      7.58000000	     -7.70197587	     -1.63819781	     -8.01801478	      2.10027740	      1.00920179	      1.09769921	     29.66209408	      6.32680781	     -5.31950510	     17.54473299	      0.30621336	      8.62057736	      4.15191003	      0.00000000	     -3.89919575	     -0.65574771	     -7.52609724	     58.17653890	      1.01537215	     -9.95168892	      5.10899175	      0.00000000
      7.58666667	     -7.16116739	     -1.97885542	     -8.21040747	      2.09889659	      1.00471263	      1.09776262	     29.76272800	      6.47960360	     -5.29850793	     20.53802343	      0.35845613	      7.73914696	      2.97147805	      0.00000000	     -3.05619072	     -1.40104686	     -7.80138897	     61.66508452	      1.07625876	     -9.44145780	      4.82696238	      0.00000000
      7.59333333	     -6.89617824	     -2.08167026	     -8.45614374	      2.09709408	      0.99957544	      1.09800658	     30.26413059	      6.52088572	     -4.94960553	     23.74295518	      0.41439274	      7.11626683	      1.52662656	      0.00000000	     -1.78265866	     -1.91370808	     -8.00408844	     65.15120048	      1.13710296	     -9.06189853	      4.01274788	      0.00000000
      7.60000000	     -6.58425680	     -2.30707652	     -8.53161706	      2.09531756	      0.99448017	      1.09821129	     30.59281146	      6.64697663	     -4.68505165	     26.83295309	      0.46832338	      6.84081646	     -0.01536659	      0.00000000	     -0.50865789	     -2.63198672	     -8.07372744	     68.58815562	      1.19708914	     -8.66265743	      3.09193777	      0.00000000
      7.60666667	     -6.35749161	     -2.46741087	     -8.60697722	      2.09326587	      0.98923739	      1.09857272	     30.99613441	      6.79286356	     -4.25740806	     29.93540637	      0.52247140	      7.10256704	     -1.53839098	      0.00000000	      0.95533658	     -3.31804302	     -8.08497886	     71.96986185	      1.25611105	     -8.31650961	      1.91128329	      0.00000000
      7.61333333	     -6.15913979	     -2.68063626	     -8.56508249	      2.09116820	      0.98412919	      1.09891862	     31.31574570	      6.96624909	     -3.96066458	     32.90979883	      0.57438435	      7.81265585	     -2.90117660	      0.00000000	      2.51846652	     -4.09916858	     -7.94243650	     75.25204035	      1.31339587	     -7.96004073	      0.67933800	      0.00000000
      7.62000000	     -5.95687774	     -2.92873329	     -8.44134715	      2.08904035	      0.97924343	      1.09919722	     31.50242942	      7.15358357	     -3.72997180	     35.72054111	      0.62344105	      8.97698784	     -4.03717888	      0.00000000	      4.14790602	     -4.91098267	     -7.65435679	     78.40005861	      1.36833916	     -7.59198316	     -0.60600189	      0.00000000
      7.62666667	     -5.73422741	     -3.22072228	     -8.25694161	      2.08686997	      0.97468936	      1.09939280	     31.50873209	      7.35404304	     -3.57879409	     38.30624073	      0.66857002	     10.48614951	     -4.92162362	      0.00000000	      5.82171964	     -5.74951552	     -7.23942545	     81.38486114	      1.42043379	     -7.20447965	     -1.89013217	      0.00000000
